<svg width="37" height="34" viewBox="0 0 37 34" fill="none" xmlns="http://www.w3.org/2000/svg">
<path d="M8.26108 20C8.69927 20 9.11952 20.1756 9.42937 20.4882C9.73922 20.8007 9.91329 21.2246 9.91329 21.6667C9.91329 22.1087 9.73922 22.5326 9.42937 22.8452C9.11952 23.1577 8.69927 23.3333 8.26108 23.3333C7.17622 23.3333 6.10198 23.1178 5.0997 22.699C4.09742 22.2802 3.18673 21.6664 2.41961 20.8926C0.870361 19.3298 0 17.2101 0 15C0 12.7899 0.870361 10.6702 2.41961 9.10744C3.96887 7.54464 6.0701 6.66667 8.26108 6.66667C9.91329 2.75 13.7134 0 18.1744 0C23.8415 0 28.4842 4.43333 28.9138 10.05L29.7399 10C31.4927 10 33.1736 10.7024 34.4131 11.9526C35.6525 13.2029 36.3487 14.8986 36.3487 16.6667C36.3487 18.4348 35.6525 20.1305 34.4131 21.3807C33.1736 22.631 31.4927 23.3333 29.7399 23.3333H28.0877C27.6495 23.3333 27.2292 23.1577 26.9194 22.8452C26.6095 22.5326 26.4354 22.1087 26.4354 21.6667C26.4354 21.2246 26.6095 20.8007 26.9194 20.4882C27.2292 20.1756 27.6495 20 28.0877 20H29.7399C30.6163 20 31.4568 19.6488 32.0765 19.0237C32.6962 18.3986 33.0443 17.5507 33.0443 16.6667C33.0443 15.7826 32.6962 14.9348 32.0765 14.3096C31.4568 13.6845 30.6163 13.3333 29.7399 13.3333H26.4354V11.6667C26.4354 9.45653 25.5651 7.33691 24.0158 5.77411C22.4666 4.21131 20.3653 3.33333 18.1744 3.33333C14.0438 3.33333 10.6568 6.36667 10.0124 10.3167C9.4672 10.1167 8.8724 10 8.26108 10C6.94649 10 5.68575 10.5268 4.7562 11.4645C3.82665 12.4022 3.30443 13.6739 3.30443 15C3.30443 16.3261 3.82665 17.5979 4.7562 18.5355C5.68575 19.4732 6.94649 20 8.26108 20ZM14.8699 26.6667C15.7463 26.6667 16.5868 27.0179 17.2065 27.643C17.8262 28.2681 18.1744 29.1159 18.1744 30C18.1744 30.8841 17.8262 31.7319 17.2065 32.357C16.5868 32.9822 15.7463 33.3333 14.8699 33.3333C13.9936 33.3333 13.1531 32.9822 12.5334 32.357C11.9137 31.7319 11.5655 30.8841 11.5655 30C11.5655 29.1159 11.9137 28.2681 12.5334 27.643C13.1531 27.0179 13.9936 26.6667 14.8699 26.6667ZM22.3049 23.3333C22.9622 23.3333 23.5926 23.5967 24.0574 24.0656C24.5221 24.5344 24.7832 25.1703 24.7832 25.8333C24.7832 26.4964 24.5221 27.1323 24.0574 27.6011C23.5926 28.0699 22.9622 28.3333 22.3049 28.3333C21.6476 28.3333 21.0172 28.0699 20.5525 27.6011C20.0877 27.1323 19.8266 26.4964 19.8266 25.8333C19.8266 25.1703 20.0877 24.5344 20.5525 24.0656C21.0172 23.5967 21.6476 23.3333 22.3049 23.3333ZM15.696 16.6667C16.3533 16.6667 16.9837 16.9301 17.4485 17.3989C17.9133 17.8677 18.1744 18.5036 18.1744 19.1667C18.1744 19.8297 17.9133 20.4656 17.4485 20.9344C16.9837 21.4033 16.3533 21.6667 15.696 21.6667C15.0388 21.6667 14.4084 21.4033 13.9436 20.9344C13.4788 20.4656 13.2177 19.8297 13.2177 19.1667C13.2177 18.5036 13.4788 17.8677 13.9436 17.3989C14.4084 16.9301 15.0388 16.6667 15.696 16.6667Z" fill="url(#paint0_linear_57_112)"/>
<defs>
<linearGradient id="paint0_linear_57_112" x1="18.1744" y1="0" x2="18.1744" y2="33.3333" gradientUnits="userSpaceOnUse">
<stop stop-color="#3C6FD1"/>
<stop offset="0.0001" stop-color="#3C6FD1"/>
<stop offset="1" stop-color="#7CA9FF"/>
</linearGradient>
</defs>
</svg>
