<svg width="32" height="34" viewBox="0 0 32 34" fill="none" xmlns="http://www.w3.org/2000/svg">
<path d="M1.65222 13.3333C1.21402 13.3333 0.793773 13.1577 0.483923 12.8452C0.174072 12.5326 0 12.1087 0 11.6667C0 11.2246 0.174072 10.8007 0.483923 10.4882C0.793773 10.1756 1.21402 10 1.65222 10H14.8699C15.7463 10 16.5868 9.64881 17.2065 9.02369C17.8262 8.39857 18.1744 7.55072 18.1744 6.66667C18.1744 5.78261 17.8262 4.93476 17.2065 4.30964C16.5868 3.68452 15.7463 3.33333 14.8699 3.33333C13.9612 3.33333 13.1351 3.7 12.5403 4.31667C12.39 4.47854 12.2083 4.60757 12.0065 4.69577C11.8047 4.78398 11.5872 4.82949 11.3672 4.82949C11.1473 4.82949 10.9298 4.78398 10.728 4.69577C10.5262 4.60757 10.3445 4.47854 10.1942 4.31667C9.54981 3.66667 9.54981 2.6 10.1942 1.95C11.4003 0.75 13.0525 0 14.8699 0C16.6227 0 18.3037 0.702379 19.5431 1.95262C20.7825 3.20286 21.4788 4.89856 21.4788 6.66667C21.4788 8.43478 20.7825 10.1305 19.5431 11.3807C18.3037 12.631 16.6227 13.3333 14.8699 13.3333H1.65222ZM26.4355 16.6667C26.8736 16.6667 27.2939 16.4911 27.6037 16.1785C27.9136 15.8659 28.0877 15.442 28.0877 15C28.0877 14.558 27.9136 14.134 27.6037 13.8215C27.2939 13.5089 26.8736 13.3333 26.4355 13.3333C25.9728 13.3333 25.5598 13.5167 25.2624 13.8167C25.1095 13.9712 24.928 14.0938 24.7281 14.1774C24.5282 14.261 24.314 14.3041 24.0976 14.3041C23.8812 14.3041 23.6669 14.261 23.467 14.1774C23.2672 14.0938 23.0856 13.9712 22.9328 13.8167C22.3049 13.1667 22.3049 12.1167 22.9328 11.4667C23.8249 10.5667 25.0641 10 26.4355 10C27.75 10 29.0108 10.5268 29.9403 11.4645C30.8699 12.4021 31.3921 13.6739 31.3921 15C31.3921 16.3261 30.8699 17.5979 29.9403 18.5355C29.0108 19.4732 27.75 20 26.4355 20H3.30443C2.86624 20 2.44599 19.8244 2.13614 19.5118C1.82629 19.1993 1.65222 18.7754 1.65222 18.3333C1.65222 17.8913 1.82629 17.4674 2.13614 17.1548C2.44599 16.8423 2.86624 16.6667 3.30443 16.6667H26.4355ZM24.7832 26.6667H1.65222C1.21402 26.6667 0.793773 26.4911 0.483923 26.1785C0.174072 25.866 0 25.442 0 25C0 24.558 0.174072 24.134 0.483923 23.8215C0.793773 23.5089 1.21402 23.3333 1.65222 23.3333H24.7832C26.0978 23.3333 27.3586 23.8601 28.2881 24.7978C29.2177 25.7355 29.7399 27.0072 29.7399 28.3333C29.7399 29.6594 29.2177 30.9312 28.2881 31.8689C27.3586 32.8065 26.0978 33.3333 24.7832 33.3333C23.4119 33.3333 22.1727 32.7667 21.2805 31.8667C20.6527 31.2167 20.6527 30.1667 21.2805 29.5167C21.4334 29.3622 21.615 29.2396 21.8148 29.1559C22.0147 29.0723 22.229 29.0293 22.4453 29.0293C22.6617 29.0293 22.876 29.0723 23.0759 29.1559C23.2758 29.2396 23.4573 29.3622 23.6102 29.5167C23.9076 29.8167 24.3206 30 24.7832 30C25.2214 30 25.6417 29.8244 25.9515 29.5118C26.2614 29.1993 26.4355 28.7754 26.4355 28.3333C26.4355 27.8913 26.2614 27.4674 25.9515 27.1548C25.6417 26.8423 25.2214 26.6667 24.7832 26.6667Z" fill="url(#paint0_linear_57_105)"/>
<defs>
<linearGradient id="paint0_linear_57_105" x1="15.696" y1="0" x2="15.696" y2="33.3333" gradientUnits="userSpaceOnUse">
<stop stop-color="#3C6FD1"/>
<stop offset="0.0001" stop-color="#3C6FD1"/>
<stop offset="1" stop-color="#7CA9FF"/>
</linearGradient>
</defs>
</svg>
