<svg width="17" height="16" viewBox="0 0 17 16" fill="none" xmlns="http://www.w3.org/2000/svg">
<path d="M4.18187 9.33335C4.36672 9.33335 4.54399 9.40358 4.6747 9.52861C4.80541 9.65363 4.87884 9.8232 4.87884 10C4.87884 10.1768 4.80541 10.3464 4.6747 10.4714C4.54399 10.5964 4.36672 10.6667 4.18187 10.6667C3.72423 10.6667 3.27108 10.5805 2.84828 10.4129C2.42547 10.2454 2.04131 9.9999 1.71771 9.69037C1.06417 9.06525 0.697021 8.2174 0.697021 7.33334C0.697021 6.44929 1.06417 5.60144 1.71771 4.97632C2.37125 4.3512 3.25763 4.00001 4.18187 4.00001C4.87884 2.43334 6.48187 1.33334 8.36369 1.33334C10.7543 1.33334 12.7128 3.10668 12.894 5.35334L13.2425 5.33334C13.9819 5.33334 14.691 5.6143 15.2138 6.11439C15.7366 6.61449 16.0304 7.29277 16.0304 8.00001C16.0304 8.70726 15.7366 9.38553 15.2138 9.88563C14.691 10.3857 13.9819 10.6667 13.2425 10.6667H12.5455C12.3607 10.6667 12.1834 10.5964 12.0527 10.4714C11.922 10.3464 11.8485 10.1768 11.8485 10C11.8485 9.8232 11.922 9.65363 12.0527 9.52861C12.1834 9.40358 12.3607 9.33335 12.5455 9.33335H13.2425C13.6122 9.33335 13.9667 9.19287 14.2281 8.94282C14.4896 8.69277 14.6364 8.35363 14.6364 8.00001C14.6364 7.64639 14.4896 7.30725 14.2281 7.0572C13.9667 6.80715 13.6122 6.66668 13.2425 6.66668H11.8485V6.00001C11.8485 5.11596 11.4814 4.26811 10.8278 3.64299C10.1743 3.01787 9.28793 2.66668 8.36369 2.66668C6.62126 2.66668 5.19248 3.88001 4.92066 5.46001C4.69066 5.38001 4.43975 5.33334 4.18187 5.33334C3.62733 5.33334 3.0955 5.54406 2.70337 5.91913C2.31125 6.2942 2.09096 6.80291 2.09096 7.33334C2.09096 7.86378 2.31125 8.37249 2.70337 8.74756C3.0955 9.12263 3.62733 9.33335 4.18187 9.33335ZM6.96975 12C7.33944 12 7.694 12.1405 7.95541 12.3905C8.21683 12.6406 8.36369 12.9797 8.36369 13.3333C8.36369 13.687 8.21683 14.0261 7.95541 14.2762C7.694 14.5262 7.33944 14.6667 6.96975 14.6667C6.60005 14.6667 6.2455 14.5262 5.98408 14.2762C5.72267 14.0261 5.57581 13.687 5.57581 13.3333C5.57581 12.9797 5.72267 12.6406 5.98408 12.3905C6.2455 12.1405 6.60005 12 6.96975 12ZM10.1061 10.6667C10.3834 10.6667 10.6493 10.772 10.8454 10.9596C11.0414 11.1471 11.1516 11.4015 11.1516 11.6667C11.1516 11.9319 11.0414 12.1862 10.8454 12.3738C10.6493 12.5613 10.3834 12.6667 10.1061 12.6667C9.82884 12.6667 9.56292 12.5613 9.36686 12.3738C9.1708 12.1862 9.06066 11.9319 9.06066 11.6667C9.06066 11.4015 9.1708 11.1471 9.36686 10.9596C9.56292 10.772 9.82884 10.6667 10.1061 10.6667ZM7.31823 8.00001C7.5955 8.00001 7.86142 8.10537 8.05748 8.2929C8.25354 8.48044 8.36369 8.7348 8.36369 9.00001C8.36369 9.26523 8.25354 9.51958 8.05748 9.70712C7.86142 9.89466 7.5955 10 7.31823 10C7.04096 10 6.77504 9.89466 6.57898 9.70712C6.38292 9.51958 6.27278 9.26523 6.27278 9.00001C6.27278 8.7348 6.38292 8.48044 6.57898 8.2929C6.77504 8.10537 7.04096 8.00001 7.31823 8.00001Z" fill="white"/>
</svg>
