<svg width="32" height="32" viewBox="0 0 32 32" fill="none" xmlns="http://www.w3.org/2000/svg">
<path d="M18.2678 5.33332L16.9611 9.24532L15.6544 5.33332C15.584 5.12145 15.564 4.89549 15.5962 4.67418C15.6284 4.45286 15.7118 4.24256 15.8396 4.0607C15.9673 3.87884 16.1356 3.73066 16.3307 3.62844C16.5257 3.52622 16.7419 3.4729 16.9611 3.4729C17.1804 3.4729 17.3965 3.52622 17.5916 3.62844C17.7866 3.73066 17.955 3.87884 18.0827 4.0607C18.2104 4.24256 18.2938 4.45286 18.326 4.67418C18.3582 4.89549 18.3383 5.12145 18.2678 5.33332ZM6.50758 14.6667L10.3414 16L6.50758 17.3333C6.29994 17.4052 6.07849 17.4256 5.8616 17.3927C5.64471 17.3599 5.43861 17.2748 5.26038 17.1444C5.08216 17.0141 4.93694 16.8423 4.83676 16.6433C4.73658 16.4442 4.68433 16.2237 4.68433 16C4.68433 15.7762 4.73658 15.5557 4.83676 15.3567C4.93694 15.1577 5.08216 14.9859 5.26038 14.8556C5.43861 14.7252 5.64471 14.6401 5.8616 14.6072C6.07849 14.5744 6.29994 14.5948 6.50758 14.6667ZM15.6544 26.6667L16.9611 22.7547L18.2678 26.6667C18.3383 26.8785 18.3582 27.1045 18.326 27.3258C18.2938 27.5471 18.2104 27.7574 18.0827 27.9393C17.955 28.1211 17.7866 28.2693 17.5916 28.3715C17.3965 28.4738 17.1804 28.5271 16.9611 28.5271C16.7419 28.5271 16.5257 28.4738 16.3307 28.3715C16.1356 28.2693 15.9673 28.1211 15.8396 27.9393C15.7118 27.7574 15.6284 27.5471 15.5962 27.3258C15.564 27.1045 15.584 26.8785 15.6544 26.6667ZM27.4147 17.3307L23.5808 15.9973L27.4147 14.664C27.6223 14.5921 27.8438 14.5717 28.0606 14.6046C28.2775 14.6374 28.4836 14.7225 28.6619 14.8529C28.8401 14.9832 28.9853 15.155 29.0855 15.354C29.1857 15.5531 29.2379 15.7736 29.2379 15.9973C29.2379 16.2211 29.1857 16.4416 29.0855 16.6406C28.9853 16.8396 28.8401 17.0114 28.6619 17.1418C28.4836 17.2721 28.2775 17.3572 28.0606 17.3901C27.8438 17.4229 27.6223 17.4025 27.4147 17.3307ZM10.493 7.51466L12.2792 11.2227L8.64533 9.39999C8.44785 9.30139 8.27629 9.15612 8.14491 8.97624C8.01354 8.79636 7.92614 8.58708 7.88999 8.3658C7.85384 8.14452 7.86999 7.91763 7.93708 7.70399C8.00417 7.49036 8.12027 7.29615 8.27573 7.13752C8.43119 6.9789 8.62152 6.86043 8.83088 6.79197C9.04025 6.72351 9.2626 6.70704 9.47946 6.74392C9.69632 6.78081 9.90142 6.86998 10.0777 7.00404C10.254 7.13809 10.3964 7.31315 10.493 7.51466ZM8.64533 22.5987L12.2792 20.776L10.493 24.484C10.3964 24.6855 10.254 24.8606 10.0777 24.9946C9.90142 25.1287 9.69632 25.2178 9.47946 25.2547C9.2626 25.2916 9.04025 25.2751 8.83088 25.2067C8.62152 25.1382 8.43119 25.0198 8.27573 24.8611C8.12027 24.7025 8.00417 24.5083 7.93708 24.2947C7.86999 24.081 7.85384 23.8541 7.88999 23.6328C7.92614 23.4116 8.01354 23.2023 8.14491 23.0224C8.27629 22.8425 8.44785 22.6973 8.64533 22.5987ZM23.4279 24.484L21.6417 20.776L25.2756 22.5987C25.4731 22.6973 25.6447 22.8425 25.776 23.0224C25.9074 23.2023 25.9948 23.4116 26.0309 23.6328C26.0671 23.8541 26.051 24.081 25.9839 24.2947C25.9168 24.5083 25.8007 24.7025 25.6452 24.8611C25.4897 25.0198 25.2994 25.1382 25.0901 25.2067C24.8807 25.2751 24.6583 25.2916 24.4415 25.2547C24.2246 25.2178 24.0195 25.1287 23.8432 24.9946C23.6669 24.8606 23.5246 24.6855 23.4279 24.484ZM25.2743 9.39732L21.6391 11.2213L23.4266 7.51199C23.5233 7.31048 23.6656 7.13543 23.8419 7.00137C24.0182 6.86732 24.2233 6.77814 24.4402 6.74126C24.657 6.70437 24.8794 6.72084 25.0887 6.7893C25.2981 6.85776 25.4884 6.97623 25.6439 7.13486C25.7994 7.29349 25.9155 7.48769 25.9826 7.70133C26.0496 7.91496 26.0658 8.14185 26.0296 8.36313C25.9935 8.58441 25.9061 8.79369 25.7747 8.97357C25.6433 9.15345 25.4718 9.29872 25.2743 9.39732ZM16.9611 22C13.7192 22 11.081 19.308 11.081 16C11.081 12.692 13.7192 9.99999 16.9611 9.99999C20.203 9.99999 22.8412 12.692 22.8412 16C22.8412 19.308 20.203 22 16.9611 22ZM16.9611 12.6667C15.1592 12.6667 13.6944 14.1613 13.6944 16C13.6944 17.8387 15.1592 19.3333 16.9611 19.3333C18.7631 19.3333 20.2279 17.8387 20.2279 16C20.2279 14.1613 18.7631 12.6667 16.9611 12.6667Z" fill="#FF9F5A"/>
</svg>
