<svg width="32" height="32" viewBox="0 0 32 32" fill="none" xmlns="http://www.w3.org/2000/svg">
<path d="M17.1753 2.32553L15.5231 7.21553L13.8709 2.32553C13.7818 2.06068 13.7566 1.77824 13.7973 1.50159C13.838 1.22495 13.9434 0.962074 14.1049 0.734751C14.2665 0.507428 14.4793 0.322204 14.726 0.194427C14.9726 0.0666503 15.2458 0 15.5231 0C15.8003 0 16.0736 0.0666503 16.3202 0.194427C16.5668 0.322204 16.7797 0.507428 16.9412 0.734751C17.1027 0.962074 17.2082 1.22495 17.2489 1.50159C17.2896 1.77824 17.2644 2.06068 17.1753 2.32553ZM2.30537 13.9922L7.15297 15.6589L2.30537 17.3255C2.04282 17.4154 1.76282 17.4409 1.48857 17.3998C1.21433 17.3587 0.953732 17.2523 0.728381 17.0894C0.503029 16.9265 0.31941 16.7117 0.192741 16.463C0.0660724 16.2142 0 15.9385 0 15.6589C0 15.3792 0.0660724 15.1035 0.192741 14.8548C0.31941 14.606 0.503029 14.3912 0.728381 14.2283C0.953732 14.0654 1.21433 13.959 1.48857 13.9179C1.76282 13.8769 2.04282 13.9023 2.30537 13.9922ZM13.8709 28.9922L15.5231 24.1022L17.1753 28.9922C17.2644 29.257 17.2896 29.5395 17.2489 29.8161C17.2082 30.0928 17.1027 30.3556 16.9412 30.583C16.7797 30.8103 16.5668 30.9955 16.3202 31.1233C16.0736 31.2511 15.8003 31.3177 15.5231 31.3177C15.2458 31.3177 14.9726 31.2511 14.726 31.1233C14.4793 30.9955 14.2665 30.8103 14.1049 30.583C13.9434 30.3556 13.838 30.0928 13.7973 29.8161C13.7566 29.5395 13.7818 29.257 13.8709 28.9922ZM28.7408 17.3222L23.8932 15.6555L28.7408 13.9889C29.0034 13.899 29.2834 13.8735 29.5576 13.9146C29.8319 13.9557 30.0925 14.0621 30.3178 14.225C30.5432 14.3879 30.7268 14.6026 30.8534 14.8514C30.9801 15.1002 31.0462 15.3759 31.0462 15.6555C31.0462 15.9352 30.9801 16.2109 30.8534 16.4596C30.7268 16.7084 30.5432 16.9232 30.3178 17.0861C30.0925 17.249 29.8319 17.3554 29.5576 17.3965C29.2834 17.4375 29.0034 17.4121 28.7408 17.3222ZM7.34462 5.0522L9.6032 9.68719L5.00839 7.40886C4.75869 7.28562 4.54177 7.10402 4.37565 6.87917C4.20954 6.65433 4.09903 6.39273 4.05333 6.11612C4.00762 5.83952 4.02803 5.55591 4.11286 5.28887C4.19769 5.02182 4.3445 4.77907 4.54106 4.58078C4.73763 4.38249 4.97828 4.23441 5.24301 4.14883C5.50774 4.06326 5.78889 4.04267 6.06309 4.08878C6.3373 4.13488 6.59663 4.24636 6.81953 4.41392C7.04242 4.58149 7.22245 4.80031 7.34462 5.0522ZM5.00839 23.9072L9.6032 21.6289L7.34462 26.2639C7.22245 26.5157 7.04242 26.7346 6.81953 26.9021C6.59663 27.0697 6.3373 27.1812 6.06309 27.2273C5.78889 27.2734 5.50774 27.2528 5.24301 27.1672C4.97828 27.0816 4.73763 26.9336 4.54106 26.7353C4.3445 26.537 4.19769 26.2942 4.11286 26.0272C4.02803 25.7601 4.00762 25.4765 4.05333 25.1999C4.09903 24.9233 4.20954 24.6617 4.37565 24.4369C4.54177 24.212 4.75869 24.0304 5.00839 23.9072ZM23.6999 26.2639L21.4413 21.6289L26.0361 23.9072C26.2858 24.0304 26.5028 24.212 26.6689 24.4369C26.835 24.6617 26.9455 24.9233 26.9912 25.1999C27.0369 25.4765 27.0165 25.7601 26.9317 26.0272C26.8468 26.2942 26.7 26.537 26.5035 26.7353C26.3069 26.9336 26.0662 27.0816 25.8015 27.1672C25.5368 27.2528 25.2556 27.2734 24.9814 27.2273C24.7072 27.1812 24.4479 27.0697 24.225 26.9021C24.0021 26.7346 23.8221 26.5157 23.6999 26.2639ZM26.0345 7.40553L21.438 9.68553L23.6983 5.04886C23.8204 4.79698 24.0005 4.57816 24.2234 4.41059C24.4463 4.24302 24.7056 4.13155 24.9798 4.08544C25.254 4.03934 25.5351 4.05993 25.7999 4.1455C26.0646 4.23108 26.3053 4.37916 26.5018 4.57745C26.6984 4.77573 26.8452 5.01849 26.93 5.28553C27.0149 5.55258 27.0353 5.83619 26.9896 6.11279C26.9438 6.38939 26.8333 6.65099 26.6672 6.87584C26.5011 7.10069 26.2842 7.28228 26.0345 7.40553ZM15.5231 23.1589C11.4239 23.1589 8.08812 19.7939 8.08812 15.6589C8.08812 11.5239 11.4239 8.15886 15.5231 8.15886C19.6222 8.15886 22.9581 11.5239 22.9581 15.6589C22.9581 19.7939 19.6222 23.1589 15.5231 23.1589ZM15.5231 11.4922C13.2447 11.4922 11.3926 13.3605 11.3926 15.6589C11.3926 17.9572 13.2447 19.8255 15.5231 19.8255C17.8015 19.8255 19.6536 17.9572 19.6536 15.6589C19.6536 13.3605 17.8015 11.4922 15.5231 11.4922Z" fill="url(#paint0_linear_57_95)"/>
<defs>
<linearGradient id="paint0_linear_57_95" x1="15.5231" y1="0" x2="15.5231" y2="31.3177" gradientUnits="userSpaceOnUse">
<stop stop-color="#3C6FD1"/>
<stop offset="0.0001" stop-color="#3C6FD1"/>
<stop offset="1" stop-color="#7CA9FF"/>
</linearGradient>
</defs>
</svg>
