<svg width="20" height="37" viewBox="0 0 20 37" fill="none" xmlns="http://www.w3.org/2000/svg">
<path d="M11.5676 23.8V12.5C11.5676 12.058 11.3935 11.6341 11.0836 11.3215C10.7738 11.0089 10.3535 10.8333 9.91536 10.8333C9.47716 10.8333 9.05691 11.0089 8.74706 11.3215C8.43721 11.6341 8.26314 12.058 8.26314 12.5V23.8C7.76372 24.0909 7.34844 24.5085 7.05859 25.0114C6.76874 25.5143 6.61441 26.085 6.61092 26.6667C6.61092 27.5507 6.95907 28.3986 7.57877 29.0237C8.19847 29.6488 9.03897 30 9.91536 30C10.7917 30 11.6322 29.6488 12.2519 29.0237C12.8716 28.3986 13.2198 27.5507 13.2198 26.6667C13.2163 26.085 13.062 25.5143 12.7721 25.0114C12.4823 24.5085 12.067 24.0909 11.5676 23.8ZM17.3503 20V7.5C17.3503 5.51088 16.567 3.60322 15.1727 2.1967C13.7783 0.790176 11.8872 0 9.91536 0C7.94348 0 6.05237 0.790176 4.65804 2.1967C3.26371 3.60322 2.48039 5.51088 2.48039 7.5V20C1.33845 21.3053 0.554113 22.8888 0.204975 24.5937C-0.144164 26.2987 -0.0460123 28.066 0.489721 29.7209C1.02545 31.3759 1.98021 32.861 3.25954 34.0295C4.53886 35.198 6.09844 36.0094 7.784 36.3833C8.48419 36.5443 9.19772 36.6392 9.91536 36.6667C11.833 36.6757 13.712 36.1234 15.3247 35.0769C16.9375 34.0304 18.2147 32.5344 19.0016 30.7704C19.7886 29.0064 20.0514 27.05 19.7583 25.1384C19.4652 23.2267 18.6288 21.4418 17.3503 20ZM14.0459 31.7833C12.7313 32.9591 11.0075 33.56 9.25378 33.4537C7.50003 33.3474 5.85995 32.5428 4.69435 31.2167C3.52876 29.8906 2.93311 28.1517 3.03846 26.3826C3.14381 24.6136 3.94152 22.9591 5.25611 21.7833C5.41222 21.629 5.53642 21.4449 5.6215 21.2418C5.70659 21.0387 5.75086 20.8205 5.75177 20.6V7.5C5.75177 6.39493 6.18695 5.33512 6.96158 4.55372C7.7362 3.77232 8.78682 3.33333 9.88231 3.33333C10.9778 3.33333 12.0284 3.77232 12.803 4.55372C13.5777 5.33512 14.0128 6.39493 14.0128 7.5V20.7333C14.0138 20.9538 14.058 21.172 14.1431 21.3751C14.2282 21.5782 14.3524 21.7623 14.5085 21.9167C15.1839 22.5748 15.7124 23.3705 16.059 24.2509C16.4056 25.1312 16.5622 26.076 16.5184 27.0222C16.4746 27.9684 16.2315 28.8943 15.8051 29.7383C15.3788 30.5822 14.7791 31.3249 14.0459 31.9167V31.7833Z" fill="url(#paint0_linear_57_119)"/>
<defs>
<linearGradient id="paint0_linear_57_119" x1="9.93739" y1="0" x2="9.93739" y2="36.6668" gradientUnits="userSpaceOnUse">
<stop stop-color="#3C6FD1"/>
<stop offset="0.0001" stop-color="#3C6FD1"/>
<stop offset="1" stop-color="#7CA9FF"/>
</linearGradient>
</defs>
</svg>
