<svg width="19" height="22" viewBox="0 0 19 22" fill="none" xmlns="http://www.w3.org/2000/svg">
<path d="M15 0C15.55 0 16 0.45 16 1V3H18C18.55 3 19 3.45 19 4C19 4.55 18.55 5 18 5H16V7C16 7.55 15.55 8 15 8C14.45 8 14 7.55 14 7V5H12C11.45 5 11 4.55 11 4C11 3.45 11.45 3 12 3H14V1C14 0.45 14.45 0 15 0ZM8 12C9.1 12 10 11.1 10 10C10 8.9 9.1 8 8 8C6.9 8 6 8.9 6 10C6 11.1 6.9 12 8 12ZM10.72 2.47C10.28 2.83 10 3.38 10 4C10 5.1 10.9 6 12 6H13V7C13 8.1 13.9 9 15 9C15.32 9 15.62 8.92 15.89 8.79C15.96 9.24 16 9.71 16 10.2C16 13.38 13.55 17.12 8.66 21.43C8.28 21.76 7.71 21.76 7.33 21.43C2.45 17.12 0 13.38 0 10.2C0 5.22 3.8 2 8 2C8.94 2 9.86 2.16 10.72 2.47Z" fill="#FBF99E"/>
</svg>
